<svg xmlns="http://www.w3.org/2000/svg" xmlns:xlink="http://www.w3.org/1999/xlink" viewBox="0 0 209.03 208.48"><defs><style>.cls-1{fill:url(#未命名的渐变);}.cls-2{fill:#fff;}.cls-3{fill:url(#未命名的渐变_2);}</style><linearGradient id="未命名的渐变" x1="32.26" y1="423.24" x2="177.46" y2="278.05" gradientTransform="matrix(1, 0, 0, -1, 0, 455.73)" gradientUnits="userSpaceOnUse"><stop offset="0" stop-color="#727171"/><stop offset="0.19" stop-color="#636262"/><stop offset="0.29" stop-color="#595757"/><stop offset="0.41" stop-color="#524f4f"/><stop offset="0.72" stop-color="#43403f"/><stop offset="1" stop-color="#3e3a39"/></linearGradient><radialGradient id="未命名的渐变_2" cx="122.3" cy="411.51" r="5.73" gradientTransform="matrix(0.84, 0.54, 0.43, -0.68, -115.39, 327.53)" gradientUnits="userSpaceOnUse"><stop offset="0" stop-color="#fff" stop-opacity="0.3"/><stop offset="1" stop-color="#fff"/></radialGradient></defs><title>资源 1</title><g id="图层_2" data-name="图层 2"><g id="图层_1-2" data-name="图层 1"><path class="cls-1" d="M156.57,193.79a102,102,0,1,0-8.8,4.59"/><path class="cls-2" d="M156.57,193.79a114.06,114.06,0,0,0,15.82-11.88,114.53,114.53,0,0,0,13.28-14.58,111.84,111.84,0,0,0,10.22-16.81,112.52,112.52,0,0,0,6.78-18.4A101.37,101.37,0,0,0,168.07,27,100.75,100.75,0,0,0,14.4,149.37a102.73,102.73,0,0,0,133.37,49C124,210.05,95.34,211.64,70,203A104.18,104.18,0,0,1,24.8,37a104.48,104.48,0,0,1,146-13.41,104.15,104.15,0,0,1,25.66,31,103,103,0,0,1,12,38.32c.23,1.67.28,3.35.4,5s.14,3.36.17,5c0,.84.05,1.68,0,2.52l-.11,2.52c-.1,1.67-.1,3.35-.28,5l-.55,5-.15,1.25-.22,1.23-.45,2.48c-.5,3.32-1.45,6.54-2.24,9.79A103,103,0,0,1,156.57,193.79Z"/><path class="cls-2" d="M10.1,65.51A56.75,56.75,0,0,1,23.27,61c2.28-.51,4.57-.92,6.87-1.3s4.62-.62,6.93-.86C41.7,58.31,46.35,58.1,51,58a51.31,51.31,0,0,1,7.19.36,52.43,52.43,0,0,1,7.08,1.39,130.66,130.66,0,0,1,13.25,4.56l12.82,5c8.56,3.22,17.24,6.17,26,9.24A171.82,171.82,0,0,1,90.12,73c-4.46-1.25-8.87-2.69-13.22-4.19s-8.63-3-12.92-4.15a51.4,51.4,0,0,0-13-1.78c-4.56-.13-9.11-.11-13.67-.07-2.28,0-4.55.12-6.82.23s-4.55.22-6.82.45A91.27,91.27,0,0,0,10.1,65.51Z"/><path class="cls-2" d="M10.1,65.55A148.57,148.57,0,0,0,33.43,79.81a84.45,84.45,0,0,0,12.41,5c1.06.29,2,.55,3.18.8s2.21.49,3.32.7c2.21.45,4.44.86,6.66,1.23,4.47.72,8.93,1.25,13.48,1.64l3.46.34a33.62,33.62,0,0,1,3.59.57c2.3.44,4.58,1,6.84,1.62a72.28,72.28,0,0,1,13.17,4.93,44.66,44.66,0,0,1,6,3.63,23,23,0,0,1,5,4.85,38,38,0,0,0-12.06-6.18c-2.12-.75-4.3-1.37-6.49-1.91s-4.39-1-6.61-1.47-4.45-.78-6.69-1.07c-1.16-.17-2.12-.29-3.24-.35l-3.41-.19A126.11,126.11,0,0,1,58.2,92.45c-2.31-.41-4.61-.81-6.89-1.35-1.14-.25-2.27-.54-3.41-.82s-2.34-.64-3.47-1a67.65,67.65,0,0,1-12.82-6.08,99.79,99.79,0,0,1-11.5-8A74.37,74.37,0,0,1,10.1,65.55Z"/><path class="cls-2" d="M32.5,32.26a56.61,56.61,0,0,1,12.32.85,115.21,115.21,0,0,1,12,2.74c4,1.09,7.87,2.42,11.74,3.87,1,.36,1.92.75,2.89,1.17l1.46.63,1.43.68a61.41,61.41,0,0,1,5.55,3.1,85.4,85.4,0,0,1,9.95,7.57C93,55.56,96,58.32,99,61.13c5.92,5.59,11.76,11.25,17.41,17.19a225.46,225.46,0,0,1-20-14.25c-6.46-5-12.58-10.35-19.16-14.55a71,71,0,0,0-10.44-5.39c-3.68-1.6-7.43-3.07-11.18-4.56s-7.56-2.83-11.4-4.07A106.23,106.23,0,0,0,32.5,32.26Z"/><path class="cls-2" d="M55.7,61.65a24.7,24.7,0,0,1-8.81-4.27,33.8,33.8,0,0,1-7-7,40.38,40.38,0,0,1-4.76-8.62,40.88,40.88,0,0,1-2.61-9.4c1.76,2.77,3.26,5.58,4.85,8.31s3.17,5.44,4.93,8a50.94,50.94,0,0,0,6,7.06A45.49,45.49,0,0,0,55.7,61.65Z"/><path class="cls-2" d="M115.38,77.94q6.09,1.47,12.19,2.8a99.72,99.72,0,0,1,12.19,3.16c7.89,2.66,15.89,5.39,23.39,9.47a71.29,71.29,0,0,1,10.74,7c.85.66,1.67,1.36,2.48,2.06s1.61,1.43,2.39,2.17,1.53,1.47,2.26,2.19l2.24,2.17a110.61,110.61,0,0,1,8.75,9.28c2.69,3.39,5.31,7.14,6.43,11.89a15.76,15.76,0,0,1-.12,7.35,16.2,16.2,0,0,1-3.5,6.38,26.27,26.27,0,0,1-5.17,4.53,32.82,32.82,0,0,1-5.88,3.18,38.69,38.69,0,0,1-6.34,2c-1.08.24-2.21.42-3.31.56s-2.16.22-3.23.28c-4.28.22-8.23.32-12.29.9a32.57,32.57,0,0,0-5.77,1.2,7.48,7.48,0,0,0-4.16,2.78,8.49,8.49,0,0,0-1.13,5.06,29.78,29.78,0,0,0,.92,5.88,117.65,117.65,0,0,0,3.79,11.78l4.32,11.74c-1.92-3.71-3.81-7.43-5.6-11.2A109,109,0,0,1,146.1,171a31.31,31.31,0,0,1-1.43-6.36,11.63,11.63,0,0,1,1.22-7,8.66,8.66,0,0,1,2.56-2.79,14.05,14.05,0,0,1,3.16-1.65A37.28,37.28,0,0,1,158,151.5c2.09-.37,4.21-.69,6.33-.91s4.23-.32,6.25-.5c1-.09,2-.19,3-.34a27.26,27.26,0,0,0,2.83-.57,34.73,34.73,0,0,0,5.49-1.93,26.46,26.46,0,0,0,9.23-6.53,11.25,11.25,0,0,0,2.44-4.48,10.91,10.91,0,0,0,0-5c-.75-3.44-2.9-6.79-5.36-9.9s-5.38-6-8.27-9l-2.18-2.24c-.73-.75-1.47-1.51-2.17-2.21s-1.42-1.43-2.18-2.09-1.48-1.37-2.27-2a80.31,80.31,0,0,0-9.89-7c-7-4.19-14.65-7.38-22.34-10.57-1.9-.81-3.8-1.56-5.76-2.22s-3.94-1.25-5.93-1.9C123.23,80.81,119.29,79.42,115.38,77.94Z"/><path class="cls-2" d="M147.77,198.38a74.53,74.53,0,0,1-16.48-4.84,117.11,117.11,0,0,1-15.46-7.69c-2.49-1.46-4.93-3-7.3-4.68s-4.67-3.31-7-5.06a64.25,64.25,0,0,1-12.71-12.25,36.31,36.31,0,0,1-4.5-8,30.36,30.36,0,0,1-1.87-9.08,34.25,34.25,0,0,1,4.42-17.43c.7-1.31,1.47-2.58,2.28-3.81a43.81,43.81,0,0,1,2.6-3.57,42.78,42.78,0,0,1,6.28-6.2,72.07,72.07,0,0,1,7.15-4.86,30.76,30.76,0,0,0,3.48-2.36,4.35,4.35,0,0,0,2-3.46,3.41,3.41,0,0,1-.21,2.15,6.72,6.72,0,0,1-1.21,1.85,31.68,31.68,0,0,1-3.2,3,82.86,82.86,0,0,0-6.33,5.57A40.15,40.15,0,0,0,94.41,124a50.66,50.66,0,0,0-4,7.15,40.4,40.4,0,0,0-2.57,7.64,27.88,27.88,0,0,0-.61,7.8A26,26,0,0,0,89,154.07a31.08,31.08,0,0,0,3.92,6.8,45,45,0,0,0,5.39,6c2,1.91,4.06,3.72,6.23,5.49s4.41,3.48,6.65,5.23,4.46,3.36,6.78,4.94a161.66,161.66,0,0,0,14.41,8.76A108.8,108.8,0,0,0,147.77,198.38Z"/><path class="cls-2" d="M171.3,121a3.8,3.8,0,0,0-.27-1.33,10.45,10.45,0,0,0-.52-1.24,15.05,15.05,0,0,0-1.34-2.27,13.52,13.52,0,0,0-3.7-3.5,12.53,12.53,0,0,0-4.76-1.72,21.71,21.71,0,0,0-5.42-.11,11,11,0,0,1,5.53-1.44,10.61,10.61,0,0,1,5.71,1.57,11.12,11.12,0,0,1,4,4.39,10.25,10.25,0,0,1,.94,2.78,10.15,10.15,0,0,1,.13,1.45A3.11,3.11,0,0,1,171.3,121Z"/><path class="cls-3" d="M170.46,118.25c-.71,1.78-5.24,2.42-8.37.66-3.44-1.93-5.18-6.73-3.83-8.29s5,0,5.86.3a10.78,10.78,0,0,1,5.06,4C170.07,116.19,170.83,117.31,170.46,118.25Z"/></g></g></svg>